<svg
  id="Layer_1"
  data-name="Layer 1"
  xmlns="http://www.w3.org/2000/svg"
  viewBox="0 0 100 100"
>
  <title>auburn-twitter</title>
  <path
    d="M50,0a50,50,0,1,0,50,50A50,50,0,0,0,50,0ZM82.54,30.91c-1.59,1.61-3.23,3.18-4.89,4.72a1.25,1.25,0,0,0-.5,1.06,40.33,40.33,0,0,1-6.52,23.09A37.45,37.45,0,0,1,46,77a40,40,0,0,1-25.31-2.72c-1.63-.74-3.18-1.65-4.77-2.48,0-.07,0-.13.07-.19a28.49,28.49,0,0,0,20.41-5.8C30,65.21,25.67,62,23.32,56c1.11,0,2.09.16,3.08.12a18,18,0,0,0,3-.41,14.58,14.58,0,0,1-7.89-5.06,13.75,13.75,0,0,1-3.05-8.92,14.57,14.57,0,0,0,6.25,1.71,14.18,14.18,0,0,1-5.8-8.6,14,14,0,0,1,1.55-10.09A40.05,40.05,0,0,0,49.21,39.43a34.7,34.7,0,0,1-.1-4.3c.54-5.7,3.48-9.8,8.77-11.9,5.52-2.19,10.61-1.07,15,3a1,1,0,0,0,1.05.28A28.58,28.58,0,0,0,81.5,23.6c.19-.11.39-.2.72-.37a15.18,15.18,0,0,1-5.75,7.69c.82-.15,1.65-.27,2.46-.45s1.72-.45,2.57-.72,1.62-.58,2.62-.94A20.44,20.44,0,0,1,82.54,30.91Z"
    style="fill: #a4532e"
  />
</svg>
