<svg
  id="Layer_1"
  data-name="Layer 1"
  xmlns="http://www.w3.org/2000/svg"
  viewBox="0 0 100 100"
>
  <title>blue-Instagram</title>
  <path
    d="M59.66,49.9A9.64,9.64,0,1,1,50,40.27,9.58,9.58,0,0,1,59.66,49.9Z"
    style="fill: #a4532e"
  />
  <path
    d="M73.68,43.34c0-2.24-.12-4.49-.26-6.73C73.11,31.44,70,27.7,65,26.78a42.18,42.18,0,0,0-7.54-.52c-7,0-13.92,0-20.87.26a9.77,9.77,0,0,0-9.49,7.3,17.24,17.24,0,0,0-.68,4.56c0,8.29,0,16.58.16,24.86A9.77,9.77,0,0,0,34,72.79a18.93,18.93,0,0,0,4.67.66c8.14,0,16.3,0,24.44-.16,6-.16,10-4.26,10.31-10.24C73.63,58.7,73.73,45.56,73.68,43.34ZM50.05,64.85A15,15,0,1,1,65,49.85,15,15,0,0,1,50.05,64.85ZM65.46,37.92a3.5,3.5,0,0,1,0-7,3.5,3.5,0,1,1,0,7Z"
    style="fill: #a4532e"
  />
  <path
    d="M50,0a50,50,0,1,0,50,50A50,50,0,0,0,50,0ZM78.82,62.14c-.06,4.93-1.61,9.38-5.54,12.73a15.39,15.39,0,0,1-9.23,3.67c-4.69.27-21.85.31-25.71.21-4.22-.11-8.21-1-11.55-3.84a14.66,14.66,0,0,1-5.41-11c-.25-8.74-.29-17.49-.19-26.23.06-4.93,1.61-9.38,5.54-12.73a14.59,14.59,0,0,1,9.12-3.65q13.21-.33,26.45-.19c4.93.06,9.38,1.64,12.71,5.58a14.75,14.75,0,0,1,3.63,9.24C78.84,44.65,78.92,53.4,78.82,62.14Z"
    style="fill: #a4532e"
  />
</svg>
