<svg
  id="Layer_1"
  data-name="Layer 1"
  xmlns="http://www.w3.org/2000/svg"
  viewBox="0 0 100 100.02"
>
  <title>Auburn - Facebook</title>
  
  <g id="JZjC6B.tif">
    <path
      d="M99.92,53.31A48.74,48.74,0,0,1,97.41,66,50.2,50.2,0,0,1,71.64,95.14a48.73,48.73,0,0,1-4.73,2l-.24.08c-.5.18-1,.35-1.5.5s-1.07.33-1.6.49l-1.92.49-1,.22a3.94,3.94,0,0,1-.47.1l-.87.17-.48.09-.44.08-.21,0h0c-.21,0-.23-.11-.23-.49V65.13c0-.57,0-.57.57-.57,3.52,0,7,0,10.56,0,.41,0,.55-.12.62-.53.38-2.62.79-5.24,1.19-7.86q.45-2.86.89-5.75c.06-.46,0-.5-.5-.5H58.55c-.63,0-.63,0-.63-.65,0-3,0-6,0-9a7.9,7.9,0,0,1,1.12-4.16,6.67,6.67,0,0,1,5-3.07,18.64,18.64,0,0,1,2.47-.17c1.79,0,3.58,0,5.36,0,.37,0,.49-.12.49-.48,0-3.84,0-7.69,0-11.52,0-.34-.12-.49-.44-.52-1.74-.21-3.47-.47-5.2-.62s-3.39-.26-5.09-.29c-5.47-.07-10.49,1.15-14.5,5.17A17.2,17.2,0,0,0,42.77,33a24.56,24.56,0,0,0-.66,5.72c0,3.57,0,7.13,0,10.7,0,.55,0,.55-.55.55H30.07c-.69,0-.69,0-.69.67V63.93c0,.63,0,.63.62.63,3.86,0,7.72,0,11.58,0,.42,0,.53.12.53.53q0,16.89,0,33.75c0,.37,0,.52-.16.53a1.36,1.36,0,0,1-.44,0l-1.17-.24L40.05,99c-1-.2-2-.42-2.92-.68l-.39-.1a48.7,48.7,0,0,1-14.47-6.61l-.54-.37c-.51-.35-1-.72-1.53-1.1-.7-.51-1.39-1-2.05-1.59-.25-.2-.48-.4-.72-.61L17,87.6l-.44-.38L16.33,87a51.29,51.29,0,0,1-4.25-4.36c-.24-.28-.5-.57-.73-.87s-.51-.62-.76-.94C10,80,9.36,79.21,8.78,78.38L8,77.19A49.93,49.93,0,0,1,2.36,65.25,45.76,45.76,0,0,1,.22,54.56C.1,52.88,0,51.21,0,49.54A50.07,50.07,0,0,1,33,3,48.2,48.2,0,0,1,43.46.44C45.07.24,46.68.16,48.3.06a43.65,43.65,0,0,1,8.85.46,49.15,49.15,0,0,1,13,3.71A50.27,50.27,0,0,1,96.9,32.57,48.79,48.79,0,0,1,99.5,42.7c.22,1.65.38,3.3.44,5C100,49.54,100,51.44,99.92,53.31Z"
      style="fill: #a4532e"
    />
  </g>
</svg>
