<svg id="Layer_1" data-name="Layer 1" xmlns="http://www.w3.org/2000/svg" viewBox="0 0 497.58 316.32"><title>coffee-square</title><path d="M301,298.27c2.34-.64,4.7-1.18,7.08-1.65,0-4.4,0-16.34,0-20.1H344.1l.42-19.14A20.71,20.71,0,0,1,362,236.8l2.68-.43v-7.73h6.62v7.74l2.64.46a20.73,20.73,0,0,1,17.22,20.46s.27,19.22.27,19.22h36v21.71l70.22-.08v-6.38l-63.83.08V270.14H397.66c0-4.07-.16-12.88-.16-12.88a27,27,0,0,0-19.86-26v-9h-19.4v9a26.9,26.9,0,0,0-20.11,26.06s-.18,8.18-.28,12.83H301.59l0,21.77-42.26-.05,1.38,6.39Z" style="fill:#2c0f0f"/><path d="M24.67,270.58H37.62V257.94H83.08c0,3.57,0,12.64,0,12.64H95.81v27.76h39.91L139,223.71l6.21-10.42,6.36,10.38,3.28,74.56,48.33,0,1.48-6.4-43.67,0c-.24-5.66-3.11-70.15-3.11-70.15L145.3,201.23,132.69,221.7s-2.88,64.6-3.1,70.26h-27.4V264.21H89.47c0-3.58,0-12.64,0-12.64H31.24v12.64H18.29v27.7H0l0,6.39H24.67Z" style="fill:#2c0f0f"/><path d="M80.11,145.9a7,7,0,0,0,6.09-1.71,2.59,2.59,0,0,1,2.11-.27,4.46,4.46,0,0,1,3.17,2.38c.5,1.18.24,3.79-2.17,7.25-4.19,6-1.45,16.09,3.6,20.48,3.17,2.75,6.91,2.79,9.76.12,3.11-2.9,5.82-2.35,9.25-1.65,2.58.52,5.5,1.11,8.4-.2a3.34,3.34,0,0,1,2.69.09,8.75,8.75,0,0,1,4.42,4.7l.7,1.85c1.91,5.15,2.65,6.64,8.42,9.91,5.1,2.9,10.29-1.06,14.46-4.24.91-.7,1.8-1.37,2.6-1.92,6.45,7.27,12.54,3.63,16.29,1.4,1.65-1,3.35-2,4.43-1.85,3.87.6,6.74.08,8.77-1.57a9,9,0,0,0,3-6.57,62.48,62.48,0,0,1,25,37.41c9.29,42.32-8.42,104.81-8.42,104.81h60.05c-4.71-13.05-17.63-61.95-12.42-89.61,3.94-20.94,5.09-26.37,14.93-34.94,2.27-2,4.34-3.94,6.22-5.82,2.18,2.18,3.85,3.08,5.54,3.08h0a5.46,5.46,0,0,0,4.17-2.46c1-1.15,1.21-1.39,2.29-1.13.72.18.84.36,1.35,1.53,1,2.21,2.38,4.54,7,4.54l.82,0c6.51-.35,9.58-5.54,12.05-9.72.46-.78.92-1.55,1.39-2.28a8.15,8.15,0,0,1,6.88-3.3,5.6,5.6,0,0,1,4.87,2.63,5.16,5.16,0,0,1,.43,3.33c-.11,1.35-.28,3.19,1.16,4.62s3.77,1.77,8.57,1.29,6.62-1.22,7.43-4.38a4.57,4.57,0,0,1,1.09-2.14c3.17,0,15.73,3.55,22.33,7.37,5.44,3.15,8.5,2.3,13.64-3.8,2.45-2.91,3.15-3.13,7.74-4.54l.19-.06c10.77-3.32,9.68-9.91,9-14.27-.32-1.91-.59-3.55,0-4.59,1.93-3.4,1.36-5.84.54-7.28-2.22-3.92-8.57-4.63-12.16-4.71H377c-.77,0-1.69,0-2.23-.1a2.12,2.12,0,0,1,0-.34c.4-4.91-3.57-6.76-6.2-8-3.14-1.46-3.4-1.91-3.18-3.18a2.31,2.31,0,0,1,.06-.27,14,14,0,0,1,2.33.38c3.41.73,9.76,2.09,12.94-5.92.77-1.92,1.07-1.88,3.63-1,1.59.57,3.57,1.29,5.38.12s2.05-3.6,2.12-4.38c.35-4.39-.28-7.36-1.92-9.06a4.52,4.52,0,0,0-3.5-1.41,2.43,2.43,0,0,1-2.15-1.17c-.58-1.23.43-3.45,2.7-6s3.21-4.91,2.82-7.21c-.61-3.61-4.24-5.57-6.89-7-.5-.27-1.15-.63-1.64-.93,2.38-4.78,1-9.7-3.89-13.35a11.52,11.52,0,0,0-6.31-2,7,7,0,0,1-1.71-.26l-.06-.12c-.73-1.92-.22-6.38.47-7.34a7.94,7.94,0,0,0,.8-8.26c-2.62-5.67-11-9.69-15.82-10.08s-9,1.39-12.37,2.93c-2,.93-4.23,2-4.89,1.43-4.82-3.89-6.17-7.94-4.37-13.14l.2-.57-.09-.61c-.9-6.16-4.16-9.4-9.69-9.62A6.87,6.87,0,0,0,319,31.35H319c-2.87,0-5,2.09-6.7,3.78-.78.77-2.23,2.2-2.64,2-1.11-.52-1.22-1.69-1-5.42a36.64,36.64,0,0,0,0-5.16c-.12-1.51-.87-3.71-3.76-5.59-3.26-2.13-8.43-3.25-12.53-3.28A10.15,10.15,0,0,0,290,9.06c-1.21-1.26-4.47-3.69-10.11-1.59-3.46-4.69-7-7.13-10.79-7.44s-7.18,1.41-10.75,5.27l-.14.15a12,12,0,0,0-3.33,6.85,8.26,8.26,0,0,1-1.29.88,6.24,6.24,0,0,0-2.92,0h0a8.23,8.23,0,0,0-8.07,1c-1.05.68-2.06,0-5-3.18-2-2.28-4.15-4.64-7-4.54-4.56.17-6.6,2.86-8.24,5-1.12,1.49-2,2.66-3.62,3.17-2.19.69-4.8-.67-7.58-2.11C206.88,10.35,201,7.29,196,13.7c-1.36,1.74-2.15,2-2.36,2C193,15.76,192,15,191,14.16c-2-1.58-5-4-8.89-1.83a21.94,21.94,0,0,0-5,4.17c-2.78,2.82-4.21,4-6.21,3.42a10.53,10.53,0,0,0-9.52,2.21,14.66,14.66,0,0,0-5.77,11,17.09,17.09,0,0,1-1.39,1.14c-1.77,1.34-4.21,3.18-4.16,6.19,0,2,1.19,4,3.61,6a43.65,43.65,0,0,1-1.22,4.92c-8.9-2.39-19.93-.61-25.89,11.32-.43.85-.86,1-3.06,1.14-3,.17-7.94.47-9.17,8.93-.67,4.72,3,9.41,6.37,12,.1.08.15.14.15.12a2.26,2.26,0,0,1-.62,1.24A6.32,6.32,0,0,1,117.74,88c-3.9-2.3-7.74-.68-11.14.75-.67.29-1.36.58-2,.84C98.09,83.35,91.38,87,86.17,91.07c-4.71,3.64-4.49,9.6-4.32,14,.05,1.45.13,3.62-.17,4.23-4.44,3.49-4.32,6.53-4.16,10.38a45.73,45.73,0,0,1,0,4.86c-.06,1.14-1.07,2.29-2.25,3.62-2.1,2.39-5.28,6-2.53,11.5C74.46,143,77.14,145.33,80.11,145.9Zm97.17,31.58.92-.42,1.66-.21A4.47,4.47,0,0,1,177.28,177.48Zm82.56-6c-.26-.28-.52-.57-.79-.9-.06-.08-.1-.17-.16-.25C259.45,170.58,259.85,170.85,259.84,171.44Zm-55.56,1.28c-1.83,1.95-5.55-.66-9-4,0-.23,0-.46,0-.71-.05-2.33-.19-8.51,2-9.51,1.07-.49,1.63-.24,3.24.62l0,0C202.45,164.15,207.47,169.32,204.28,172.72Zm24.18-7.53c-.28,4.58-1.65,9-5.34,9.48-5.49.35-7.91-3-9.13-12.93a26.51,26.51,0,0,1-.05-4.43,14.83,14.83,0,0,0,2.5-5.08c.44-1.32.89-2.69,1.5-3.13.16.27.34.63.48.9.75,1.48,2,4,4.89,4h0a8.62,8.62,0,0,0,4.09-1.17l.08,0A60.38,60.38,0,0,1,228.46,165.19Zm14.13-.45c-3-1.28-3-7.19-2.2-12.88a23.68,23.68,0,0,0,1.72-2.72c.12-.2.22-.32.31-.34,1.26-.29,4.71,2.15,6.55,3.46,1.22.85,2.27,1.6,3.25,2.14C249.27,160.24,245.52,166,242.59,164.74Zm3.89,20.85c-2.18-2.73-1.16-9.74,2.94-13.72a55.55,55.55,0,0,0,3.87-4.28,8.46,8.46,0,0,0,1.88,6.1,20.73,20.73,0,0,0,4.57,4.25l-.32.5C255,185,248.68,188.33,246.48,185.59ZM79,131.43c1.55-1.77,3.32-3.77,3.49-6.64a52.25,52.25,0,0,0,0-5.36c-.15-3.52-.18-4.35,2.3-6.28,2.27-1.76,2.15-4.94,2-8.31-.14-3.81-.29-7.75,2.39-9.82,6.86-5.3,9.65-4.46,12.7-.9L103,95.36l1.55-.47a38.24,38.24,0,0,0,4-1.51c3.23-1.36,5.15-2.07,6.88-.91,2.83,1.88,7.06-.91,9-3.65,2.11-3,1.84-6.12-.69-8s-4.8-5-4.47-7.31c.64-4.43,1.86-4.5,4.52-4.66,2.16-.13,5.44-.32,7.23-3.89,6.14-12.3,17.92-9.5,21.39-8.35a3,3,0,0,0,2.48-.26c1.71-1,2.54-3.48,3.55-8.32l6.12.15-6.64-4.73c-2.82-2-2.87-3-2.87-3,0-.48,1.47-1.6,2.18-2.14,1.62-1.23,3.45-2.62,3.38-4.9a9.69,9.69,0,0,1,3.83-7.3c1-.76,3-2,5.07-1.35,5.08,1.47,8.45-2,11.15-4.71a18.53,18.53,0,0,1,3.85-3.3,1.36,1.36,0,0,1,.82-.19A14.38,14.38,0,0,1,187.66,19c3.14,3.2,3.61,4.94,7.41,5,4.75.12,6.42-9.24,11.35-4.67,1.77,1.65.25,3.12,3.31,3.12,1.83,0,4.8-.71,6.33.76s3.83,6.12,8.77,5.37c5.65-.88,8.44-5.58,11.52-5.16,13.53,1.77,4.16,19.53,24.16,14.15,4.91-1.33,13.71,9,14.28,15.57.26,3-.39,7-3,9.32-2.86,2.53-6.19-4.26-13.54,1-6,4.25,4.38,9.55,2.39,10.15-8,2.41,3.55,6,4.08,8.67,1.18,5.88-10.22-.25-14.63,3.86-3,2.78-1.4,10.55-7.75,10.15-7.49-.46-6.2-9-15.74-8.28-5.17.4-7-12.21-14.44-11.49-12.43,1.2-11.8,1.67-15.95,7.32-4.28,5.86-1.57,12.53,1.46,13.78,7.31,3,12.69,3.11,12.15,7.8-.63,5.42,5.11,8.07,4,10.42-3.93,8.09-10.08-.71-12.61,6.49-1.38,4-5.69,1.3-10.63-.82-7.29-3.12-20.18-7.37-23.59,1.56s.12,9.34,2.56,15.31c3.25,8-7.23,6.38-7.65,12.42-.27,3.75,7,2.13,8.24,7.27,2.66,11.22-12.06.65-13.56,12.89-.41,3.4-8.77-3.38-13,4.09-1.7,3-3.36,7.29-9.51,5.09-.35-.74-.7-1.66-1.16-2.92-.22-.57-.45-1.2-.72-1.89a13.73,13.73,0,0,0-7.18-7.54,8.21,8.21,0,0,0-6.66,0c-1.43.64-3.24.27-5.34-.15-3.66-.75-8.67-1.77-13.66,2.89-.5.48-1.34,1.26-3.07-.23-3.32-2.88-5.3-10.25-2.79-13.84,3.1-4.43,4.07-8.84,2.67-12.1a9.46,9.46,0,0,0-6.76-5.3,7.25,7.25,0,0,0-6.5,1.5,1.93,1.93,0,0,1-1.76.47c-1.4-.27-2.83-1.62-3.83-3.61C76,135,76.91,133.83,79,131.43Z" style="fill:#2c0f0f"/></svg>